<svg viewBox="0 0 2000 1000" xmlns="http://www.w3.org/2000/svg"><mask id="b" x="0" y="0" width="2000" height="1000"><path fill="url(#a)" d="M0 0h2000v1000H0z"/></mask><path fill="#fff" d="M0 0h2000v1000H0z"/><g style="transform-origin:center center" stroke="#bbbde8" stroke-width=".4" fill="none" mask="url(#b)"><path d="M0 0h91v91H0zM91 0h91v91H91zM182 0h91v91h-91zM273 0h91v91h-91zM364 0h91v91h-91zM455 0h91v91h-91zM546 0h91v91h-91zM637 0h91v91h-91zM728 0h91v91h-91zM819 0h91v91h-91zM910 0h91v91h-91zM1001 0h91v91h-91zM1092 0h91v91h-91zM1183 0h91v91h-91zM1274 0h91v91h-91zM1365 0h91v91h-91zM1456 0h91v91h-91zM1547 0h91v91h-91zM1638 0h91v91h-91zM1729 0h91v91h-91zM1820 0h91v91h-91zM1911 0h91v91h-91zM0 91h91v91H0zM91 91h91v91H91zM182 91h91v91h-91zM273 91h91v91h-91zM364 91h91v91h-91zM455 91h91v91h-91zM546 91h91v91h-91zM637 91h91v91h-91zM728 91h91v91h-91zM819 91h91v91h-91zM910 91h91v91h-91zM1001 91h91v91h-91zM1092 91h91v91h-91zM1183 91h91v91h-91zM1274 91h91v91h-91zM1365 91h91v91h-91zM1456 91h91v91h-91zM1547 91h91v91h-91zM1638 91h91v91h-91zM1729 91h91v91h-91zM1820 91h91v91h-91zM1911 91h91v91h-91zM0 182h91v91H0zM91 182h91v91H91zM182 182h91v91h-91zM273 182h91v91h-91zM364 182h91v91h-91zM455 182h91v91h-91zM546 182h91v91h-91zM637 182h91v91h-91zM728 182h91v91h-91zM819 182h91v91h-91zM910 182h91v91h-91zM1001 182h91v91h-91zM1092 182h91v91h-91zM1183 182h91v91h-91zM1274 182h91v91h-91zM1365 182h91v91h-91zM1456 182h91v91h-91zM1547 182h91v91h-91zM1638 182h91v91h-91zM1729 182h91v91h-91zM1820 182h91v91h-91zM1911 182h91v91h-91zM0 273h91v91H0zM91 273h91v91H91zM182 273h91v91h-91zM273 273h91v91h-91zM364 273h91v91h-91zM455 273h91v91h-91zM546 273h91v91h-91zM637 273h91v91h-91zM728 273h91v91h-91zM819 273h91v91h-91zM910 273h91v91h-91zM1001 273h91v91h-91zM1092 273h91v91h-91zM1183 273h91v91h-91zM1274 273h91v91h-91zM1365 273h91v91h-91zM1456 273h91v91h-91zM1547 273h91v91h-91zM1638 273h91v91h-91zM1729 273h91v91h-91zM1820 273h91v91h-91zM1911 273h91v91h-91zM0 364h91v91H0zM91 364h91v91H91zM182 364h91v91h-91zM273 364h91v91h-91zM364 364h91v91h-91zM455 364h91v91h-91zM546 364h91v91h-91zM637 364h91v91h-91zM728 364h91v91h-91zM819 364h91v91h-91zM910 364h91v91h-91zM1001 364h91v91h-91zM1092 364h91v91h-91zM1183 364h91v91h-91zM1274 364h91v91h-91zM1365 364h91v91h-91zM1456 364h91v91h-91zM1547 364h91v91h-91zM1638 364h91v91h-91zM1729 364h91v91h-91zM1820 364h91v91h-91zM1911 364h91v91h-91zM0 455h91v91H0zM91 455h91v91H91zM182 455h91v91h-91zM273 455h91v91h-91zM364 455h91v91h-91zM455 455h91v91h-91zM546 455h91v91h-91zM637 455h91v91h-91zM728 455h91v91h-91zM819 455h91v91h-91zM910 455h91v91h-91zM1001 455h91v91h-91zM1092 455h91v91h-91zM1183 455h91v91h-91zM1274 455h91v91h-91zM1365 455h91v91h-91zM1456 455h91v91h-91zM1547 455h91v91h-91zM1638 455h91v91h-91zM1729 455h91v91h-91zM1820 455h91v91h-91zM1911 455h91v91h-91zM0 546h91v91H0zM91 546h91v91H91zM182 546h91v91h-91zM273 546h91v91h-91zM364 546h91v91h-91zM455 546h91v91h-91zM546 546h91v91h-91zM637 546h91v91h-91zM728 546h91v91h-91zM819 546h91v91h-91zM910 546h91v91h-91zM1001 546h91v91h-91zM1092 546h91v91h-91zM1183 546h91v91h-91zM1274 546h91v91h-91zM1365 546h91v91h-91zM1456 546h91v91h-91zM1547 546h91v91h-91zM1638 546h91v91h-91zM1729 546h91v91h-91zM1820 546h91v91h-91zM1911 546h91v91h-91zM0 637h91v91H0zM91 637h91v91H91zM182 637h91v91h-91zM273 637h91v91h-91zM364 637h91v91h-91zM455 637h91v91h-91zM546 637h91v91h-91zM637 637h91v91h-91zM728 637h91v91h-91zM819 637h91v91h-91zM910 637h91v91h-91zM1001 637h91v91h-91zM1092 637h91v91h-91zM1183 637h91v91h-91zM1274 637h91v91h-91zM1365 637h91v91h-91zM1456 637h91v91h-91zM1547 637h91v91h-91zM1638 637h91v91h-91zM1729 637h91v91h-91zM1820 637h91v91h-91zM1911 637h91v91h-91zM0 728h91v91H0zM91 728h91v91H91zM182 728h91v91h-91zM273 728h91v91h-91zM364 728h91v91h-91zM455 728h91v91h-91zM546 728h91v91h-91zM637 728h91v91h-91zM728 728h91v91h-91zM819 728h91v91h-91zM910 728h91v91h-91zM1001 728h91v91h-91zM1092 728h91v91h-91zM1183 728h91v91h-91zM1274 728h91v91h-91zM1365 728h91v91h-91zM1456 728h91v91h-91zM1547 728h91v91h-91zM1638 728h91v91h-91zM1729 728h91v91h-91zM1820 728h91v91h-91zM1911 728h91v91h-91zM0 819h91v91H0zM91 819h91v91H91zM182 819h91v91h-91zM273 819h91v91h-91zM364 819h91v91h-91zM455 819h91v91h-91zM546 819h91v91h-91zM637 819h91v91h-91zM728 819h91v91h-91zM819 819h91v91h-91zM910 819h91v91h-91zM1001 819h91v91h-91zM1092 819h91v91h-91zM1183 819h91v91h-91zM1274 819h91v91h-91zM1365 819h91v91h-91zM1456 819h91v91h-91zM1547 819h91v91h-91zM1638 819h91v91h-91zM1729 819h91v91h-91zM1820 819h91v91h-91zM1911 819h91v91h-91zM0 910h91v91H0zM91 910h91v91H91zM182 910h91v91h-91zM273 910h91v91h-91zM364 910h91v91h-91zM455 910h91v91h-91zM546 910h91v91h-91zM637 910h91v91h-91zM728 910h91v91h-91zM819 910h91v91h-91zM910 910h91v91h-91zM1001 910h91v91h-91zM1092 910h91v91h-91zM1183 910h91v91h-91zM1274 910h91v91h-91zM1365 910h91v91h-91zM1456 910h91v91h-91zM1547 910h91v91h-91zM1638 910h91v91h-91zM1729 910h91v91h-91zM1820 910h91v91h-91zM1911 910h91v91h-91z"/></g><defs><radialGradient id="a"><stop offset="0" stop-color="#fff"/><stop offset="1" stop-color="#fff" stop-opacity="0"/></radialGradient></defs></svg>