<svg viewBox="0 0 2000 1000" xmlns="http://www.w3.org/2000/svg"><mask id="b" x="0" y="0" width="2000" height="1000"><path fill="url(#a)" d="M0 0h2000v1000H0z"/></mask><g style="transform-origin:center center" stroke="#ddd" stroke-width=".4" fill="none" mask="url(#b)"><path d="M0 0h85.2v85.2H0zM85.2 0h85.2v85.2H85.2zM170.4 0h85.2v85.2h-85.2z" stroke-width=".48"/><path d="M255.6 0h85.2v85.2h-85.2zM340.8 0H426v85.2h-85.2zM426 0h85.2v85.2H426zM511.2 0h85.2v85.2h-85.2zM596.4 0h85.2v85.2h-85.2zM681.6 0h85.2v85.2h-85.2z" stroke-width=".48"/><path d="M766.8 0H852v85.2h-85.2zM852 0h85.2v85.2H852zM937.2 0h85.2v85.2h-85.2z" stroke-width=".48"/><path d="M1022.4 0h85.2v85.2h-85.2zM1107.6 0h85.2v85.2h-85.2zM1192.8 0h85.2v85.2h-85.2zM1278 0h85.2v85.2H1278zM1363.2 0h85.2v85.2h-85.2zM1448.4 0h85.2v85.2h-85.2z" stroke-width=".48"/><path d="M1533.6 0h85.2v85.2h-85.2zM1618.8 0h85.2v85.2h-85.2zM1704 0h85.2v85.2H1704zM1789.2 0h85.2v85.2h-85.2zM1874.4 0h85.2v85.2h-85.2z" stroke-width=".48"/><path d="M1959.6 0h85.2v85.2h-85.2zM2044.8 0h85.2v85.2h-85.2zM2130 0h85.2v85.2H2130zM2215.2 0h85.2v85.2h-85.2zM2300.4 0h85.2v85.2h-85.2zM0 85.2h85.2v85.2H0zM85.2 85.2h85.2v85.2H85.2zM170.4 85.2h85.2v85.2h-85.2z" stroke-width=".48"/><path d="M255.6 85.2h85.2v85.2h-85.2zM340.8 85.2H426v85.2h-85.2zM426 85.2h85.2v85.2H426zM511.2 85.2h85.2v85.2h-85.2zM596.4 85.2h85.2v85.2h-85.2zM681.6 85.2h85.2v85.2h-85.2z" stroke-width=".48"/><path d="M766.8 85.2H852v85.2h-85.2zM852 85.2h85.2v85.2H852zM937.2 85.2h85.2v85.2h-85.2z" stroke-width=".48"/><path d="M1022.4 85.2h85.2v85.2h-85.2zM1107.6 85.2h85.2v85.2h-85.2zM1192.8 85.2h85.2v85.2h-85.2zM1278 85.2h85.2v85.2H1278zM1363.2 85.2h85.2v85.2h-85.2zM1448.4 85.2h85.2v85.2h-85.2z" stroke-width=".48"/><path d="M1533.6 85.2h85.2v85.2h-85.2zM1618.8 85.2h85.2v85.2h-85.2zM1704 85.2h85.2v85.2H1704zM1789.2 85.2h85.2v85.2h-85.2zM1874.4 85.2h85.2v85.2h-85.2z" stroke-width=".48"/><path d="M1959.6 85.2h85.2v85.2h-85.2zM2044.8 85.2h85.2v85.2h-85.2zM2130 85.2h85.2v85.2H2130zM2215.2 85.2h85.2v85.2h-85.2zM2300.4 85.2h85.2v85.2h-85.2zM0 170.4h85.2v85.2H0zM85.2 170.4h85.2v85.2H85.2zM170.4 170.4h85.2v85.2h-85.2z" stroke-width=".48"/><path d="M255.6 170.4h85.2v85.2h-85.2zM340.8 170.4H426v85.2h-85.2zM426 170.4h85.2v85.2H426zM511.2 170.4h85.2v85.2h-85.2zM596.4 170.4h85.2v85.2h-85.2zM681.6 170.4h85.2v85.2h-85.2z" stroke-width=".48"/><path d="M766.8 170.4H852v85.2h-85.2zM852 170.4h85.2v85.2H852zM937.2 170.4h85.2v85.2h-85.2z" stroke-width=".48"/><path d="M1022.4 170.4h85.2v85.2h-85.2zM1107.6 170.4h85.2v85.2h-85.2zM1192.8 170.4h85.2v85.2h-85.2zM1278 170.4h85.2v85.2H1278zM1363.2 170.4h85.2v85.2h-85.2zM1448.4 170.4h85.2v85.2h-85.2z" stroke-width=".48"/><path d="M1533.6 170.4h85.2v85.2h-85.2zM1618.8 170.4h85.2v85.2h-85.2zM1704 170.4h85.2v85.2H1704zM1789.2 170.4h85.2v85.2h-85.2zM1874.4 170.4h85.2v85.2h-85.2z" stroke-width=".48"/><path d="M1959.6 170.4h85.2v85.2h-85.2zM2044.8 170.4h85.2v85.2h-85.2zM2130 170.4h85.2v85.2H2130zM2215.2 170.4h85.2v85.2h-85.2zM2300.4 170.4h85.2v85.2h-85.2zM0 255.6h85.2v85.2H0zM85.2 255.6h85.2v85.2H85.2zM170.4 255.6h85.2v85.2h-85.2z" stroke-width=".48"/><path d="M255.6 255.6h85.2v85.2h-85.2zM340.8 255.6H426v85.2h-85.2zM426 255.6h85.2v85.2H426zM511.2 255.6h85.2v85.2h-85.2zM596.4 255.6h85.2v85.2h-85.2zM681.6 255.6h85.2v85.2h-85.2z" stroke-width=".48"/><path d="M766.8 255.6H852v85.2h-85.2zM852 255.6h85.2v85.2H852zM937.2 255.6h85.2v85.2h-85.2z" stroke-width=".48"/><path d="M1022.4 255.6h85.2v85.2h-85.2zM1107.6 255.6h85.2v85.2h-85.2zM1192.8 255.6h85.2v85.2h-85.2zM1278 255.6h85.2v85.2H1278zM1363.2 255.6h85.2v85.2h-85.2zM1448.4 255.6h85.2v85.2h-85.2z" stroke-width=".48"/><path d="M1533.6 255.6h85.2v85.2h-85.2zM1618.8 255.6h85.2v85.2h-85.2zM1704 255.6h85.2v85.2H1704zM1789.2 255.6h85.2v85.2h-85.2zM1874.4 255.6h85.2v85.2h-85.2z" stroke-width=".48"/><path d="M1959.6 255.6h85.2v85.2h-85.2zM2044.8 255.6h85.2v85.2h-85.2zM2130 255.6h85.2v85.2H2130zM2215.2 255.6h85.2v85.2h-85.2zM2300.4 255.6h85.2v85.2h-85.2zM0 340.8h85.2V426H0zM85.2 340.8h85.2V426H85.2zM170.4 340.8h85.2V426h-85.2z" stroke-width=".48"/><path d="M255.6 340.8h85.2V426h-85.2zM340.8 340.8H426V426h-85.2zM426 340.8h85.2V426H426zM511.2 340.8h85.2V426h-85.2zM596.4 340.8h85.2V426h-85.2zM681.6 340.8h85.2V426h-85.2z" stroke-width=".48"/><path d="M766.8 340.8H852V426h-85.2zM852 340.8h85.2V426H852zM937.2 340.8h85.2V426h-85.2z" stroke-width=".48"/><path d="M1022.4 340.8h85.2V426h-85.2zM1107.6 340.8h85.2V426h-85.2zM1192.8 340.8h85.2V426h-85.2zM1278 340.8h85.2V426H1278zM1363.2 340.8h85.2V426h-85.2zM1448.4 340.8h85.2V426h-85.2z" stroke-width=".48"/><path d="M1533.6 340.8h85.2V426h-85.2zM1618.8 340.8h85.2V426h-85.2zM1704 340.8h85.2V426H1704zM1789.2 340.8h85.2V426h-85.2zM1874.4 340.8h85.2V426h-85.2z" stroke-width=".48"/><path d="M1959.6 340.8h85.2V426h-85.2zM2044.8 340.8h85.2V426h-85.2zM2130 340.8h85.2V426H2130zM2215.2 340.8h85.2V426h-85.2zM2300.4 340.8h85.2V426h-85.2zM0 426h85.2v85.2H0zM85.2 426h85.2v85.2H85.2zM170.4 426h85.2v85.2h-85.2z" stroke-width=".48"/><path d="M255.6 426h85.2v85.2h-85.2zM340.8 426H426v85.2h-85.2zM426 426h85.2v85.2H426zM511.2 426h85.2v85.2h-85.2zM596.4 426h85.2v85.2h-85.2zM681.6 426h85.2v85.2h-85.2z" stroke-width=".48"/><path d="M766.8 426H852v85.2h-85.2zM852 426h85.2v85.2H852zM937.2 426h85.2v85.2h-85.2z" stroke-width=".48"/><path d="M1022.4 426h85.2v85.2h-85.2zM1107.6 426h85.2v85.2h-85.2zM1192.8 426h85.2v85.2h-85.2zM1278 426h85.2v85.2H1278zM1363.2 426h85.2v85.2h-85.2zM1448.4 426h85.2v85.2h-85.2z" stroke-width=".48"/><path d="M1533.6 426h85.2v85.2h-85.2zM1618.8 426h85.2v85.2h-85.2zM1704 426h85.2v85.2H1704zM1789.2 426h85.2v85.2h-85.2zM1874.4 426h85.2v85.2h-85.2z" stroke-width=".48"/><path d="M1959.6 426h85.2v85.2h-85.2zM2044.8 426h85.2v85.2h-85.2zM2130 426h85.2v85.2H2130zM2215.2 426h85.2v85.2h-85.2zM2300.4 426h85.2v85.2h-85.2zM0 511.2h85.2v85.2H0zM85.2 511.2h85.2v85.2H85.2zM170.4 511.2h85.2v85.2h-85.2z" stroke-width=".48"/><path d="M255.6 511.2h85.2v85.2h-85.2zM340.8 511.2H426v85.2h-85.2zM426 511.2h85.2v85.2H426zM511.2 511.2h85.2v85.2h-85.2zM596.4 511.2h85.2v85.2h-85.2zM681.6 511.2h85.2v85.2h-85.2z" stroke-width=".48"/><path d="M766.8 511.2H852v85.2h-85.2zM852 511.2h85.2v85.2H852zM937.2 511.2h85.2v85.2h-85.2z" stroke-width=".48"/><path d="M1022.4 511.2h85.2v85.2h-85.2zM1107.6 511.2h85.2v85.2h-85.2zM1192.8 511.2h85.2v85.2h-85.2zM1278 511.2h85.2v85.2H1278zM1363.2 511.2h85.2v85.2h-85.2zM1448.4 511.2h85.2v85.2h-85.2z" stroke-width=".48"/><path d="M1533.6 511.2h85.2v85.2h-85.2zM1618.8 511.2h85.2v85.2h-85.2zM1704 511.2h85.2v85.2H1704zM1789.2 511.2h85.2v85.2h-85.2zM1874.4 511.2h85.2v85.2h-85.2z" stroke-width=".48"/><path d="M1959.6 511.2h85.2v85.2h-85.2zM2044.8 511.2h85.2v85.2h-85.2zM2130 511.2h85.2v85.2H2130zM2215.2 511.2h85.2v85.2h-85.2zM2300.4 511.2h85.2v85.2h-85.2zM0 596.4h85.2v85.2H0zM85.2 596.4h85.2v85.2H85.2zM170.4 596.4h85.2v85.2h-85.2z" stroke-width=".48"/><path d="M255.6 596.4h85.2v85.2h-85.2zM340.8 596.4H426v85.2h-85.2zM426 596.4h85.2v85.2H426zM511.2 596.4h85.2v85.2h-85.2zM596.4 596.4h85.2v85.2h-85.2zM681.6 596.4h85.2v85.2h-85.2z" stroke-width=".48"/><path d="M766.8 596.4H852v85.2h-85.2zM852 596.4h85.2v85.2H852zM937.2 596.4h85.2v85.2h-85.2z" stroke-width=".48"/><path d="M1022.4 596.4h85.2v85.2h-85.2zM1107.6 596.4h85.2v85.2h-85.2zM1192.8 596.4h85.2v85.2h-85.2zM1278 596.4h85.2v85.2H1278zM1363.2 596.4h85.2v85.2h-85.2zM1448.4 596.4h85.2v85.2h-85.2z" stroke-width=".48"/><path d="M1533.6 596.4h85.2v85.2h-85.2zM1618.8 596.4h85.2v85.2h-85.2zM1704 596.4h85.2v85.2H1704zM1789.2 596.4h85.2v85.2h-85.2zM1874.4 596.4h85.2v85.2h-85.2z" stroke-width=".48"/><path d="M1959.6 596.4h85.2v85.2h-85.2zM2044.8 596.4h85.2v85.2h-85.2zM2130 596.4h85.2v85.2H2130zM2215.2 596.4h85.2v85.2h-85.2zM2300.4 596.4h85.2v85.2h-85.2zM0 681.6h85.2v85.2H0zM85.2 681.6h85.2v85.2H85.2zM170.4 681.6h85.2v85.2h-85.2z" stroke-width=".48"/><path d="M255.6 681.6h85.2v85.2h-85.2zM340.8 681.6H426v85.2h-85.2zM426 681.6h85.2v85.2H426zM511.2 681.6h85.2v85.2h-85.2zM596.4 681.6h85.2v85.2h-85.2zM681.6 681.6h85.2v85.2h-85.2z" stroke-width=".48"/><path d="M766.8 681.6H852v85.2h-85.2zM852 681.6h85.2v85.2H852zM937.2 681.6h85.2v85.2h-85.2z" stroke-width=".48"/><path d="M1022.4 681.6h85.2v85.2h-85.2zM1107.6 681.6h85.2v85.2h-85.2zM1192.8 681.6h85.2v85.2h-85.2zM1278 681.6h85.2v85.2H1278zM1363.2 681.6h85.2v85.2h-85.2zM1448.4 681.6h85.2v85.2h-85.2z" stroke-width=".48"/><path d="M1533.6 681.6h85.2v85.2h-85.2zM1618.8 681.6h85.2v85.2h-85.2zM1704 681.6h85.2v85.2H1704zM1789.2 681.6h85.2v85.2h-85.2zM1874.4 681.6h85.2v85.2h-85.2z" stroke-width=".48"/><path d="M1959.6 681.6h85.2v85.2h-85.2zM2044.8 681.6h85.2v85.2h-85.2zM2130 681.6h85.2v85.2H2130zM2215.2 681.6h85.2v85.2h-85.2zM2300.4 681.6h85.2v85.2h-85.2zM0 766.8h85.2V852H0zM85.2 766.8h85.2V852H85.2zM170.4 766.8h85.2V852h-85.2z" stroke-width=".48"/><path d="M255.6 766.8h85.2V852h-85.2zM340.8 766.8H426V852h-85.2zM426 766.8h85.2V852H426zM511.2 766.8h85.2V852h-85.2zM596.4 766.8h85.2V852h-85.2zM681.6 766.8h85.2V852h-85.2z" stroke-width=".48"/><path d="M766.8 766.8H852V852h-85.2zM852 766.8h85.2V852H852zM937.2 766.8h85.2V852h-85.2z" stroke-width=".48"/><path d="M1022.4 766.8h85.2V852h-85.2zM1107.6 766.8h85.2V852h-85.2zM1192.8 766.8h85.2V852h-85.2zM1278 766.8h85.2V852H1278zM1363.2 766.8h85.2V852h-85.2zM1448.4 766.8h85.2V852h-85.2z" stroke-width=".48"/><path d="M1533.6 766.8h85.2V852h-85.2zM1618.8 766.8h85.2V852h-85.2zM1704 766.8h85.2V852H1704zM1789.2 766.8h85.2V852h-85.2zM1874.4 766.8h85.2V852h-85.2z" stroke-width=".48"/><path d="M1959.6 766.8h85.2V852h-85.2zM2044.8 766.8h85.2V852h-85.2zM2130 766.8h85.2V852H2130zM2215.2 766.8h85.2V852h-85.2zM2300.4 766.8h85.2V852h-85.2zM0 852h85.2v85.2H0zM85.2 852h85.2v85.2H85.2zM170.4 852h85.2v85.2h-85.2z" stroke-width=".48"/><path d="M255.6 852h85.2v85.2h-85.2zM340.8 852H426v85.2h-85.2zM426 852h85.2v85.2H426zM511.2 852h85.2v85.2h-85.2zM596.4 852h85.2v85.2h-85.2zM681.6 852h85.2v85.2h-85.2z" stroke-width=".48"/><path d="M766.8 852H852v85.2h-85.2zM852 852h85.2v85.2H852zM937.2 852h85.2v85.2h-85.2z" stroke-width=".48"/><path d="M1022.4 852h85.2v85.2h-85.2zM1107.6 852h85.2v85.2h-85.2zM1192.8 852h85.2v85.2h-85.2zM1278 852h85.2v85.2H1278zM1363.2 852h85.2v85.2h-85.2zM1448.4 852h85.2v85.2h-85.2z" stroke-width=".48"/><path d="M1533.6 852h85.2v85.2h-85.2zM1618.8 852h85.2v85.2h-85.2zM1704 852h85.2v85.2H1704zM1789.2 852h85.2v85.2h-85.2zM1874.4 852h85.2v85.2h-85.2z" stroke-width=".48"/><path d="M1959.6 852h85.2v85.2h-85.2zM2044.8 852h85.2v85.2h-85.2zM2130 852h85.2v85.2H2130zM2215.2 852h85.2v85.2h-85.2zM2300.4 852h85.2v85.2h-85.2zM0 937.2h85.2v85.2H0zM85.2 937.2h85.2v85.2H85.2zM170.4 937.2h85.2v85.2h-85.2z" stroke-width=".48"/><path d="M255.6 937.2h85.2v85.2h-85.2zM340.8 937.2H426v85.2h-85.2zM426 937.2h85.2v85.2H426zM511.2 937.2h85.2v85.2h-85.2zM596.4 937.2h85.2v85.2h-85.2zM681.6 937.2h85.2v85.2h-85.2z" stroke-width=".48"/><path d="M766.8 937.2H852v85.2h-85.2zM852 937.2h85.2v85.2H852zM937.2 937.2h85.2v85.2h-85.2z" stroke-width=".48"/><path d="M1022.4 937.2h85.2v85.2h-85.2zM1107.6 937.2h85.2v85.2h-85.2zM1192.8 937.2h85.2v85.2h-85.2zM1278 937.2h85.2v85.2H1278zM1363.2 937.2h85.2v85.2h-85.2zM1448.4 937.2h85.2v85.2h-85.2z" stroke-width=".48"/><path d="M1533.6 937.2h85.2v85.2h-85.2zM1618.8 937.2h85.2v85.2h-85.2zM1704 937.2h85.2v85.2H1704zM1789.2 937.2h85.2v85.2h-85.2zM1874.4 937.2h85.2v85.2h-85.2z" stroke-width=".48"/><path d="M1959.6 937.2h85.2v85.2h-85.2zM2044.8 937.2h85.2v85.2h-85.2zM2130 937.2h85.2v85.2H2130zM2215.2 937.2h85.2v85.2h-85.2zM2300.4 937.2h85.2v85.2h-85.2zM0 1022.4h85.2v85.2H0zM85.2 1022.4h85.2v85.2H85.2zM170.4 1022.4h85.2v85.2h-85.2z" stroke-width=".48"/><path d="M255.6 1022.4h85.2v85.2h-85.2zM340.8 1022.4H426v85.2h-85.2zM426 1022.4h85.2v85.2H426zM511.2 1022.4h85.2v85.2h-85.2zM596.4 1022.4h85.2v85.2h-85.2zM681.6 1022.4h85.2v85.2h-85.2z" stroke-width=".48"/><path d="M766.8 1022.4H852v85.2h-85.2zM852 1022.4h85.2v85.2H852zM937.2 1022.4h85.2v85.2h-85.2z" stroke-width=".48"/><path d="M1022.4 1022.4h85.2v85.2h-85.2zM1107.6 1022.4h85.2v85.2h-85.2zM1192.8 1022.4h85.2v85.2h-85.2zM1278 1022.4h85.2v85.2H1278zM1363.2 1022.4h85.2v85.2h-85.2zM1448.4 1022.4h85.2v85.2h-85.2z" stroke-width=".48"/><path d="M1533.6 1022.4h85.2v85.2h-85.2zM1618.8 1022.4h85.2v85.2h-85.2zM1704 1022.4h85.2v85.2H1704zM1789.2 1022.4h85.2v85.2h-85.2zM1874.4 1022.4h85.2v85.2h-85.2z" stroke-width=".48"/><path d="M1959.6 1022.4h85.2v85.2h-85.2zM2044.8 1022.4h85.2v85.2h-85.2zM2130 1022.4h85.2v85.2H2130zM2215.2 1022.4h85.2v85.2h-85.2zM2300.4 1022.4h85.2v85.2h-85.2zM0 1107.6h85.2v85.2H0zM85.2 1107.6h85.2v85.2H85.2zM170.4 1107.6h85.2v85.2h-85.2z" stroke-width=".48"/><path d="M255.6 1107.6h85.2v85.2h-85.2zM340.8 1107.6H426v85.2h-85.2zM426 1107.6h85.2v85.2H426zM511.2 1107.6h85.2v85.2h-85.2zM596.4 1107.6h85.2v85.2h-85.2zM681.6 1107.6h85.2v85.2h-85.2z" stroke-width=".48"/><path d="M766.8 1107.6H852v85.2h-85.2zM852 1107.6h85.2v85.2H852zM937.2 1107.6h85.2v85.2h-85.2z" stroke-width=".48"/><path d="M1022.4 1107.6h85.2v85.2h-85.2zM1107.6 1107.6h85.2v85.2h-85.2zM1192.8 1107.6h85.2v85.2h-85.2zM1278 1107.6h85.2v85.2H1278zM1363.2 1107.6h85.2v85.2h-85.2zM1448.4 1107.6h85.2v85.2h-85.2z" stroke-width=".48"/><path d="M1533.6 1107.6h85.2v85.2h-85.2zM1618.8 1107.6h85.2v85.2h-85.2zM1704 1107.6h85.2v85.2H1704zM1789.2 1107.6h85.2v85.2h-85.2zM1874.4 1107.6h85.2v85.2h-85.2z" stroke-width=".48"/><path d="M1959.6 1107.6h85.2v85.2h-85.2zM2044.8 1107.6h85.2v85.2h-85.2zM2130 1107.6h85.2v85.2H2130zM2215.2 1107.6h85.2v85.2h-85.2zM2300.4 1107.6h85.2v85.2h-85.2zM0 1192.8h85.2v85.2H0zM85.2 1192.8h85.2v85.2H85.2zM170.4 1192.8h85.2v85.2h-85.2z" stroke-width=".48"/><path d="M255.6 1192.8h85.2v85.2h-85.2zM340.8 1192.8H426v85.2h-85.2zM426 1192.8h85.2v85.2H426zM511.2 1192.8h85.2v85.2h-85.2zM596.4 1192.8h85.2v85.2h-85.2zM681.6 1192.8h85.2v85.2h-85.2z" stroke-width=".48"/><path d="M766.8 1192.8H852v85.2h-85.2zM852 1192.8h85.2v85.2H852zM937.2 1192.8h85.2v85.2h-85.2z" stroke-width=".48"/><path d="M1022.4 1192.8h85.2v85.2h-85.2zM1107.6 1192.8h85.2v85.2h-85.2zM1192.8 1192.8h85.2v85.2h-85.2zM1278 1192.8h85.2v85.2H1278zM1363.2 1192.8h85.2v85.2h-85.2zM1448.4 1192.8h85.2v85.2h-85.2z" stroke-width=".48"/><path d="M1533.6 1192.8h85.2v85.2h-85.2zM1618.8 1192.8h85.2v85.2h-85.2zM1704 1192.8h85.2v85.2H1704zM1789.2 1192.8h85.2v85.2h-85.2zM1874.4 1192.8h85.2v85.2h-85.2z" stroke-width=".48"/><path d="M1959.6 1192.8h85.2v85.2h-85.2zM2044.8 1192.8h85.2v85.2h-85.2zM2130 1192.8h85.2v85.2H2130zM2215.2 1192.8h85.2v85.2h-85.2zM2300.4 1192.8h85.2v85.2h-85.2z" stroke-width=".48"/></g><defs><radialGradient id="a"><stop offset="0" stop-color="#fff"/><stop offset="1" stop-color="#fff"/></radialGradient></defs></svg>