<svg viewBox="0 0 2000 1000" xmlns="http://www.w3.org/2000/svg"><mask id="b" x="0" y="0" width="2000" height="1000"><path fill="none" d="M0 0h2000v1000H0z"/></mask><path fill="#fff" d="M0 0h2000v1000H0z"/><g style="transform-origin:center center" stroke="#bbbde8" stroke-width=".4" fill="none" mask="url(#b)"><path d="M0 0h65v65H0zM65 0h65v65H65zM130 0h65v65h-65zM195 0h65v65h-65zM260 0h65v65h-65zM325 0h65v65h-65zM390 0h65v65h-65zM455 0h65v65h-65zM520 0h65v65h-65zM585 0h65v65h-65zM650 0h65v65h-65zM715 0h65v65h-65zM780 0h65v65h-65zM845 0h65v65h-65zM910 0h65v65h-65zM975 0h65v65h-65zM1040 0h65v65h-65zM1105 0h65v65h-65zM1170 0h65v65h-65zM1235 0h65v65h-65zM1300 0h65v65h-65zM1365 0h65v65h-65zM1430 0h65v65h-65zM1495 0h65v65h-65zM1560 0h65v65h-65zM1625 0h65v65h-65zM1690 0h65v65h-65zM1755 0h65v65h-65zM1820 0h65v65h-65zM1885 0h65v65h-65zM1950 0h65v65h-65zM0 65h65v65H0zM65 65h65v65H65zM130 65h65v65h-65zM195 65h65v65h-65zM260 65h65v65h-65zM325 65h65v65h-65zM390 65h65v65h-65zM455 65h65v65h-65zM520 65h65v65h-65zM585 65h65v65h-65zM650 65h65v65h-65zM715 65h65v65h-65zM780 65h65v65h-65zM845 65h65v65h-65zM910 65h65v65h-65zM975 65h65v65h-65zM1040 65h65v65h-65zM1105 65h65v65h-65zM1170 65h65v65h-65zM1235 65h65v65h-65zM1300 65h65v65h-65zM1365 65h65v65h-65zM1430 65h65v65h-65zM1495 65h65v65h-65zM1560 65h65v65h-65zM1625 65h65v65h-65zM1690 65h65v65h-65zM1755 65h65v65h-65zM1820 65h65v65h-65zM1885 65h65v65h-65zM1950 65h65v65h-65zM0 130h65v65H0zM65 130h65v65H65zM130 130h65v65h-65zM195 130h65v65h-65zM260 130h65v65h-65zM325 130h65v65h-65zM390 130h65v65h-65zM455 130h65v65h-65zM520 130h65v65h-65zM585 130h65v65h-65zM650 130h65v65h-65zM715 130h65v65h-65zM780 130h65v65h-65zM845 130h65v65h-65zM910 130h65v65h-65zM975 130h65v65h-65zM1040 130h65v65h-65zM1105 130h65v65h-65zM1170 130h65v65h-65zM1235 130h65v65h-65zM1300 130h65v65h-65zM1365 130h65v65h-65zM1430 130h65v65h-65zM1495 130h65v65h-65zM1560 130h65v65h-65zM1625 130h65v65h-65zM1690 130h65v65h-65zM1755 130h65v65h-65zM1820 130h65v65h-65zM1885 130h65v65h-65zM1950 130h65v65h-65zM0 195h65v65H0zM65 195h65v65H65zM130 195h65v65h-65zM195 195h65v65h-65zM260 195h65v65h-65zM325 195h65v65h-65zM390 195h65v65h-65zM455 195h65v65h-65zM520 195h65v65h-65zM585 195h65v65h-65zM650 195h65v65h-65zM715 195h65v65h-65zM780 195h65v65h-65zM845 195h65v65h-65zM910 195h65v65h-65zM975 195h65v65h-65zM1040 195h65v65h-65zM1105 195h65v65h-65zM1170 195h65v65h-65zM1235 195h65v65h-65zM1300 195h65v65h-65zM1365 195h65v65h-65zM1430 195h65v65h-65zM1495 195h65v65h-65zM1560 195h65v65h-65zM1625 195h65v65h-65zM1690 195h65v65h-65zM1755 195h65v65h-65zM1820 195h65v65h-65zM1885 195h65v65h-65zM1950 195h65v65h-65zM0 260h65v65H0zM65 260h65v65H65zM130 260h65v65h-65zM195 260h65v65h-65zM260 260h65v65h-65zM325 260h65v65h-65zM390 260h65v65h-65zM455 260h65v65h-65zM520 260h65v65h-65zM585 260h65v65h-65zM650 260h65v65h-65zM715 260h65v65h-65zM780 260h65v65h-65zM845 260h65v65h-65zM910 260h65v65h-65zM975 260h65v65h-65zM1040 260h65v65h-65zM1105 260h65v65h-65zM1170 260h65v65h-65zM1235 260h65v65h-65zM1300 260h65v65h-65zM1365 260h65v65h-65zM1430 260h65v65h-65zM1495 260h65v65h-65zM1560 260h65v65h-65zM1625 260h65v65h-65zM1690 260h65v65h-65zM1755 260h65v65h-65zM1820 260h65v65h-65zM1885 260h65v65h-65zM1950 260h65v65h-65zM0 325h65v65H0zM65 325h65v65H65zM130 325h65v65h-65zM195 325h65v65h-65zM260 325h65v65h-65zM325 325h65v65h-65zM390 325h65v65h-65zM455 325h65v65h-65zM520 325h65v65h-65zM585 325h65v65h-65zM650 325h65v65h-65zM715 325h65v65h-65zM780 325h65v65h-65zM845 325h65v65h-65zM910 325h65v65h-65zM975 325h65v65h-65zM1040 325h65v65h-65zM1105 325h65v65h-65zM1170 325h65v65h-65zM1235 325h65v65h-65zM1300 325h65v65h-65zM1365 325h65v65h-65zM1430 325h65v65h-65zM1495 325h65v65h-65zM1560 325h65v65h-65zM1625 325h65v65h-65zM1690 325h65v65h-65zM1755 325h65v65h-65zM1820 325h65v65h-65zM1885 325h65v65h-65zM1950 325h65v65h-65zM0 390h65v65H0zM65 390h65v65H65zM130 390h65v65h-65zM195 390h65v65h-65zM260 390h65v65h-65zM325 390h65v65h-65zM390 390h65v65h-65zM455 390h65v65h-65zM520 390h65v65h-65zM585 390h65v65h-65zM650 390h65v65h-65zM715 390h65v65h-65zM780 390h65v65h-65zM845 390h65v65h-65zM910 390h65v65h-65zM975 390h65v65h-65zM1040 390h65v65h-65zM1105 390h65v65h-65zM1170 390h65v65h-65zM1235 390h65v65h-65zM1300 390h65v65h-65zM1365 390h65v65h-65zM1430 390h65v65h-65zM1495 390h65v65h-65zM1560 390h65v65h-65zM1625 390h65v65h-65zM1690 390h65v65h-65zM1755 390h65v65h-65zM1820 390h65v65h-65zM1885 390h65v65h-65zM1950 390h65v65h-65zM0 455h65v65H0zM65 455h65v65H65zM130 455h65v65h-65zM195 455h65v65h-65zM260 455h65v65h-65zM325 455h65v65h-65zM390 455h65v65h-65zM455 455h65v65h-65zM520 455h65v65h-65zM585 455h65v65h-65zM650 455h65v65h-65zM715 455h65v65h-65zM780 455h65v65h-65zM845 455h65v65h-65zM910 455h65v65h-65zM975 455h65v65h-65zM1040 455h65v65h-65zM1105 455h65v65h-65zM1170 455h65v65h-65zM1235 455h65v65h-65zM1300 455h65v65h-65zM1365 455h65v65h-65zM1430 455h65v65h-65zM1495 455h65v65h-65zM1560 455h65v65h-65zM1625 455h65v65h-65zM1690 455h65v65h-65zM1755 455h65v65h-65zM1820 455h65v65h-65zM1885 455h65v65h-65zM1950 455h65v65h-65zM0 520h65v65H0zM65 520h65v65H65zM130 520h65v65h-65zM195 520h65v65h-65zM260 520h65v65h-65zM325 520h65v65h-65zM390 520h65v65h-65zM455 520h65v65h-65zM520 520h65v65h-65zM585 520h65v65h-65zM650 520h65v65h-65zM715 520h65v65h-65zM780 520h65v65h-65zM845 520h65v65h-65zM910 520h65v65h-65zM975 520h65v65h-65zM1040 520h65v65h-65zM1105 520h65v65h-65zM1170 520h65v65h-65zM1235 520h65v65h-65zM1300 520h65v65h-65zM1365 520h65v65h-65zM1430 520h65v65h-65zM1495 520h65v65h-65zM1560 520h65v65h-65zM1625 520h65v65h-65zM1690 520h65v65h-65zM1755 520h65v65h-65zM1820 520h65v65h-65zM1885 520h65v65h-65zM1950 520h65v65h-65zM0 585h65v65H0zM65 585h65v65H65zM130 585h65v65h-65zM195 585h65v65h-65zM260 585h65v65h-65zM325 585h65v65h-65zM390 585h65v65h-65zM455 585h65v65h-65zM520 585h65v65h-65zM585 585h65v65h-65zM650 585h65v65h-65zM715 585h65v65h-65zM780 585h65v65h-65zM845 585h65v65h-65zM910 585h65v65h-65zM975 585h65v65h-65zM1040 585h65v65h-65zM1105 585h65v65h-65zM1170 585h65v65h-65zM1235 585h65v65h-65zM1300 585h65v65h-65zM1365 585h65v65h-65zM1430 585h65v65h-65zM1495 585h65v65h-65zM1560 585h65v65h-65zM1625 585h65v65h-65zM1690 585h65v65h-65zM1755 585h65v65h-65zM1820 585h65v65h-65zM1885 585h65v65h-65zM1950 585h65v65h-65zM0 650h65v65H0zM65 650h65v65H65zM130 650h65v65h-65zM195 650h65v65h-65zM260 650h65v65h-65zM325 650h65v65h-65zM390 650h65v65h-65zM455 650h65v65h-65zM520 650h65v65h-65zM585 650h65v65h-65zM650 650h65v65h-65zM715 650h65v65h-65zM780 650h65v65h-65zM845 650h65v65h-65zM910 650h65v65h-65zM975 650h65v65h-65zM1040 650h65v65h-65zM1105 650h65v65h-65zM1170 650h65v65h-65zM1235 650h65v65h-65zM1300 650h65v65h-65zM1365 650h65v65h-65zM1430 650h65v65h-65zM1495 650h65v65h-65zM1560 650h65v65h-65zM1625 650h65v65h-65zM1690 650h65v65h-65zM1755 650h65v65h-65zM1820 650h65v65h-65zM1885 650h65v65h-65zM1950 650h65v65h-65zM0 715h65v65H0zM65 715h65v65H65zM130 715h65v65h-65zM195 715h65v65h-65zM260 715h65v65h-65zM325 715h65v65h-65zM390 715h65v65h-65zM455 715h65v65h-65zM520 715h65v65h-65zM585 715h65v65h-65zM650 715h65v65h-65zM715 715h65v65h-65zM780 715h65v65h-65zM845 715h65v65h-65zM910 715h65v65h-65zM975 715h65v65h-65zM1040 715h65v65h-65zM1105 715h65v65h-65zM1170 715h65v65h-65zM1235 715h65v65h-65zM1300 715h65v65h-65zM1365 715h65v65h-65zM1430 715h65v65h-65zM1495 715h65v65h-65zM1560 715h65v65h-65zM1625 715h65v65h-65zM1690 715h65v65h-65zM1755 715h65v65h-65zM1820 715h65v65h-65zM1885 715h65v65h-65zM1950 715h65v65h-65zM0 780h65v65H0zM65 780h65v65H65zM130 780h65v65h-65zM195 780h65v65h-65zM260 780h65v65h-65zM325 780h65v65h-65zM390 780h65v65h-65zM455 780h65v65h-65zM520 780h65v65h-65zM585 780h65v65h-65zM650 780h65v65h-65zM715 780h65v65h-65zM780 780h65v65h-65zM845 780h65v65h-65zM910 780h65v65h-65zM975 780h65v65h-65zM1040 780h65v65h-65zM1105 780h65v65h-65zM1170 780h65v65h-65zM1235 780h65v65h-65zM1300 780h65v65h-65zM1365 780h65v65h-65zM1430 780h65v65h-65zM1495 780h65v65h-65zM1560 780h65v65h-65zM1625 780h65v65h-65zM1690 780h65v65h-65zM1755 780h65v65h-65zM1820 780h65v65h-65zM1885 780h65v65h-65zM1950 780h65v65h-65zM0 845h65v65H0zM65 845h65v65H65zM130 845h65v65h-65zM195 845h65v65h-65zM260 845h65v65h-65zM325 845h65v65h-65zM390 845h65v65h-65zM455 845h65v65h-65zM520 845h65v65h-65zM585 845h65v65h-65zM650 845h65v65h-65zM715 845h65v65h-65zM780 845h65v65h-65zM845 845h65v65h-65zM910 845h65v65h-65zM975 845h65v65h-65zM1040 845h65v65h-65zM1105 845h65v65h-65zM1170 845h65v65h-65zM1235 845h65v65h-65zM1300 845h65v65h-65zM1365 845h65v65h-65zM1430 845h65v65h-65zM1495 845h65v65h-65zM1560 845h65v65h-65zM1625 845h65v65h-65zM1690 845h65v65h-65zM1755 845h65v65h-65zM1820 845h65v65h-65zM1885 845h65v65h-65zM1950 845h65v65h-65zM0 910h65v65H0zM65 910h65v65H65zM130 910h65v65h-65zM195 910h65v65h-65zM260 910h65v65h-65zM325 910h65v65h-65zM390 910h65v65h-65zM455 910h65v65h-65zM520 910h65v65h-65zM585 910h65v65h-65zM650 910h65v65h-65zM715 910h65v65h-65zM780 910h65v65h-65zM845 910h65v65h-65zM910 910h65v65h-65zM975 910h65v65h-65zM1040 910h65v65h-65zM1105 910h65v65h-65zM1170 910h65v65h-65zM1235 910h65v65h-65zM1300 910h65v65h-65zM1365 910h65v65h-65zM1430 910h65v65h-65zM1495 910h65v65h-65zM1560 910h65v65h-65zM1625 910h65v65h-65zM1690 910h65v65h-65zM1755 910h65v65h-65zM1820 910h65v65h-65zM1885 910h65v65h-65zM1950 910h65v65h-65zM0 975h65v65H0zM65 975h65v65H65zM130 975h65v65h-65zM195 975h65v65h-65zM260 975h65v65h-65zM325 975h65v65h-65zM390 975h65v65h-65zM455 975h65v65h-65zM520 975h65v65h-65zM585 975h65v65h-65zM650 975h65v65h-65zM715 975h65v65h-65zM780 975h65v65h-65zM845 975h65v65h-65zM910 975h65v65h-65zM975 975h65v65h-65zM1040 975h65v65h-65zM1105 975h65v65h-65zM1170 975h65v65h-65zM1235 975h65v65h-65zM1300 975h65v65h-65zM1365 975h65v65h-65zM1430 975h65v65h-65zM1495 975h65v65h-65zM1560 975h65v65h-65zM1625 975h65v65h-65zM1690 975h65v65h-65zM1755 975h65v65h-65zM1820 975h65v65h-65zM1885 975h65v65h-65zM1950 975h65v65h-65z"/></g><defs><radialGradient id="a"><stop offset="0" stop-color="#fff"/><stop offset="1" stop-color="#fff" stop-opacity="0"/></radialGradient></defs></svg>