<svg viewBox="0 0 2000 1000" xmlns="http://www.w3.org/2000/svg"><mask id="b" x="0" y="0" width="2000" height="1000"><path fill="url(#a)" d="M0 0h2000v1000H0z"/></mask><path fill="#fff" d="M0 0h2000v1000H0z"/><g style="transform-origin:center center" stroke="#bbbde8" stroke-width=".4" fill="none" mask="url(#b)"><path d="M0 0h133v133H0zM133 0h133v133H133zM266 0h133v133H266zM399 0h133v133H399zM532 0h133v133H532zM665 0h133v133H665zM798 0h133v133H798zM931 0h133v133H931zM1064 0h133v133h-133zM1197 0h133v133h-133zM1330 0h133v133h-133zM1463 0h133v133h-133zM1596 0h133v133h-133zM1729 0h133v133h-133zM1862 0h133v133h-133zM0 133h133v133H0zM133 133h133v133H133zM266 133h133v133H266zM399 133h133v133H399zM532 133h133v133H532zM665 133h133v133H665zM798 133h133v133H798zM931 133h133v133H931zM1064 133h133v133h-133zM1197 133h133v133h-133zM1330 133h133v133h-133zM1463 133h133v133h-133zM1596 133h133v133h-133zM1729 133h133v133h-133zM1862 133h133v133h-133zM0 266h133v133H0zM133 266h133v133H133zM266 266h133v133H266zM399 266h133v133H399zM532 266h133v133H532zM665 266h133v133H665zM798 266h133v133H798zM931 266h133v133H931zM1064 266h133v133h-133zM1197 266h133v133h-133zM1330 266h133v133h-133zM1463 266h133v133h-133zM1596 266h133v133h-133zM1729 266h133v133h-133zM1862 266h133v133h-133zM0 399h133v133H0zM133 399h133v133H133zM266 399h133v133H266zM399 399h133v133H399zM532 399h133v133H532zM665 399h133v133H665zM798 399h133v133H798zM931 399h133v133H931zM1064 399h133v133h-133zM1197 399h133v133h-133zM1330 399h133v133h-133zM1463 399h133v133h-133zM1596 399h133v133h-133zM1729 399h133v133h-133zM1862 399h133v133h-133zM0 532h133v133H0zM133 532h133v133H133zM266 532h133v133H266zM399 532h133v133H399zM532 532h133v133H532zM665 532h133v133H665zM798 532h133v133H798zM931 532h133v133H931zM1064 532h133v133h-133zM1197 532h133v133h-133zM1330 532h133v133h-133zM1463 532h133v133h-133zM1596 532h133v133h-133zM1729 532h133v133h-133zM1862 532h133v133h-133zM0 665h133v133H0zM133 665h133v133H133zM266 665h133v133H266zM399 665h133v133H399zM532 665h133v133H532zM665 665h133v133H665zM798 665h133v133H798zM931 665h133v133H931zM1064 665h133v133h-133zM1197 665h133v133h-133zM1330 665h133v133h-133zM1463 665h133v133h-133zM1596 665h133v133h-133zM1729 665h133v133h-133zM1862 665h133v133h-133zM0 798h133v133H0zM133 798h133v133H133zM266 798h133v133H266zM399 798h133v133H399zM532 798h133v133H532zM665 798h133v133H665zM798 798h133v133H798zM931 798h133v133H931zM1064 798h133v133h-133zM1197 798h133v133h-133zM1330 798h133v133h-133zM1463 798h133v133h-133zM1596 798h133v133h-133zM1729 798h133v133h-133zM1862 798h133v133h-133zM0 931h133v133H0zM133 931h133v133H133zM266 931h133v133H266zM399 931h133v133H399zM532 931h133v133H532zM665 931h133v133H665zM798 931h133v133H798zM931 931h133v133H931zM1064 931h133v133h-133zM1197 931h133v133h-133zM1330 931h133v133h-133zM1463 931h133v133h-133zM1596 931h133v133h-133zM1729 931h133v133h-133zM1862 931h133v133h-133z"/></g><defs><radialGradient id="a"><stop offset="0" stop-color="#fff"/><stop offset="1" stop-color="#fff" stop-opacity="0"/></radialGradient></defs></svg>